<?xml version="1.0" encoding="utf-8"?>
<!-- Uploaded to: SVG Repo, www.svgrepo.com, Generator: SVG Repo Mixer Tools -->
<svg fill="#000000" width="800px" height="800px" viewBox="-6 0 32 32" version="1.1" xmlns="http://www.w3.org/2000/svg">
<title>quote-right</title>
<path d="M3.44 22.8c-0.32 0-0.64-0.2-0.76-0.52-0.16-0.44 0.040-0.92 0.48-1.080 3.4-1.36 4.12-4.28 4.12-6.48 0-2.52-1.4-3.84-2.8-3.84-1.28 0-2.8 0.6-2.8 2.28 0 0.68 0.36 1.32 0.96 1.72 0.48 0.28 1.040 0.36 1.44 0.12 0.4-0.2 0.92-0.040 1.12 0.36s0.040 0.92-0.36 1.12c-0.96 0.48-2.12 0.4-3.080-0.2-1.12-0.68-1.76-1.84-1.76-3.12 0-2.32 1.84-3.96 4.48-3.96 2.16 0 4.48 1.92 4.48 5.52 0 3.84-1.84 6.68-5.2 8.040-0.080 0-0.2 0.040-0.32 0.040zM14 22.8c-0.32 0-0.64-0.2-0.76-0.52-0.16-0.44 0.040-0.92 0.48-1.080 3.4-1.36 4.12-4.28 4.12-6.48 0-2.52-1.4-3.84-2.8-3.84-1.28 0-2.8 0.6-2.8 2.28 0 0.68 0.36 1.32 0.96 1.72 0.48 0.28 1.040 0.36 1.44 0.12 0.4-0.2 0.92-0.040 1.12 0.36s0.040 0.92-0.36 1.12c-0.96 0.48-2.12 0.4-3.080-0.2-1.080-0.68-1.76-1.84-1.76-3.12 0-2.32 1.84-3.96 4.48-3.96 2.16 0 4.48 1.92 4.48 5.52 0 3.84-1.84 6.68-5.2 8.040-0.12 0-0.24 0.040-0.32 0.040z"></path>
</svg>